Coordinates
version=1
nRows=30
nColumns=38
inDegrees=no

Units are S.I. units (second, meters, Newtons, ...)
If the header above contains a line with 'inDegrees', this indicates whether rotational values are in degrees (yes) or radians (no).

endheader
time	pelvis_tilt	pelvis_list	pelvis_rotation	pelvis_tx	pelvis_ty	pelvis_tz	hip_flexion_r	hip_adduction_r	hip_rotation_r	knee_angle_r	ankle_angle_r	subtalar_angle_r	mtp_angle_r	hip_flexion_l	hip_adduction_l	hip_rotation_l	knee_angle_l	ankle_angle_l	subtalar_angle_l	mtp_angle_l	lumbar_extension	lumbar_bending	lumbar_rotation	arm_flex_r	arm_add_r	arm_rot_r	elbow_flex_r	pro_sup_r	wrist_flex_r	wrist_dev_r	arm_flex_l	arm_add_l	arm_rot_l	elbow_flex_l	pro_sup_l	wrist_flex_l	wrist_dev_l
170	1.70391	1.51337	1.32961	-0.255731	-0.563859	0.86725	0.567349	-0.0440371	-0.147723	0.659208	-0.226993	0	0	-0.331225	-0.119932	-0.460714	0.210676	-0.208853	0	0	-0.0125271	0.093942	-0.162985	-0.0344137	-0.473961	0.825128	0.532062	0.639019	0	0	0.254807	-0.0129054	0.353817	0.356454	1.5708	0	0
170.01	1.80475	1.5099	1.22406	-0.266889	-0.559299	0.867598	0.568486	-0.0360173	-0.15587	0.677022	-0.226969	0	0	-0.328178	-0.137269	-0.468272	0.242598	-0.223166	0	0	-0.00620092	0.105153	-0.166332	-0.0354758	-0.473796	0.83451	0.526924	0.635876	0	0	0.250074	-0.00841135	0.360526	0.350733	1.5708	0	0
170.02	1.89459	1.50543	1.12736	-0.277938	-0.554378	0.868249	0.568692	-0.0254142	-0.162399	0.693548	-0.225443	0	0	-0.323402	-0.15506	-0.474045	0.276335	-0.242543	0	0	2.1894e-05	0.116393	-0.167821	-0.0359569	-0.474033	0.843257	0.522416	0.632499	0	0	0.245627	-0.0034323	0.365278	0.343757	1.5708	0	0
170.03	1.96301	1.50057	1.04853	-0.288755	-0.548861	0.869153	0.567305	-0.0101752	-0.161297	0.707602	-0.221265	0	0	-0.317055	-0.17265	-0.478381	0.31258	-0.269488	0	0	0.00567984	0.126354	-0.166183	-0.0346855	-0.473795	0.855312	0.517258	0.628898	0	0	0.240565	0.00115103	0.365944	0.337461	1.5708	0	0
170.04	2.01317	1.4958	0.984757	-0.299449	-0.542763	0.870318	0.563721	0.00824178	-0.151489	0.718547	-0.211925	0	0	-0.310342	-0.189645	-0.47903	0.347866	-0.319168	0	0	0.0117063	0.134913	-0.164578	-0.0209225	-0.479737	0.920635	0.514394	0.573872	0	0	0.233863	0.00353483	0.364505	0.332085	1.5708	0	0
170.05	2.05227	1.49149	0.930839	-0.309973	-0.536119	0.871738	0.556745	0.0280874	-0.136348	0.723763	-0.204902	0	0	-0.302974	-0.206634	-0.469463	0.382053	-0.362219	0	0	0.0165868	0.141561	-0.15923	-0.016216	-0.476563	0.941998	0.504915	0.570827	0	0	0.22896	0.00462199	0.370951	0.325369	1.5708	0	0
170.06	2.07002	1.48777	0.898184	-0.32028	-0.529226	0.873214	0.547243	0.0465852	-0.122733	0.723559	-0.199501	0	0	-0.290009	-0.22284	-0.454228	0.424324	-0.39875	0	0	0.0216623	0.145694	-0.153866	-0.0121007	-0.472478	0.958602	0.496562	0.573582	0	0	0.224111	0.00414164	0.378678	0.319107	1.5708	0	0
170.07	2.06202	1.48385	0.891712	-0.33028	-0.52225	0.874537	0.536619	0.0625905	-0.113784	0.718793	-0.194338	0	0	-0.267699	-0.239051	-0.436127	0.480999	-0.43544	0	0	0.0282411	0.147434	-0.149647	-0.0078567	-0.467513	0.971435	0.489014	0.583101	0	0	0.218845	0.00145394	0.389513	0.314481	1.5708	0	0
170.08	2.06378	1.4815	0.878454	-0.340156	-0.515689	0.876011	0.520711	0.0739866	-0.11462	0.709721	-0.190253	0	0	-0.241065	-0.254981	-0.411049	0.544918	-0.46915	0	0	0.0328218	0.148798	-0.148837	-0.0037729	-0.463716	0.977371	0.485401	0.597023	0	0	0.213833	-0.0023945	0.403108	0.311522	1.5708	0	0
170.09	2.10037	1.48149	0.834923	-0.350292	-0.509899	0.877875	0.496524	0.0803181	-0.129085	0.695523	-0.186932	0	0	-0.213982	-0.27092	-0.381102	0.611389	-0.499449	0	0	0.0335892	0.151417	-0.152819	-0.00028012	-0.462281	0.976065	0.486255	0.615537	0	0	0.209493	-0.00553623	0.418005	0.309059	1.5708	0	0
170.1	2.04487	1.47573	0.879736	-0.359203	-0.503606	0.878487	0.486952	0.0870053	-0.133446	0.685429	-0.184812	0	0	-0.170165	-0.283096	-0.347904	0.687946	-0.514753	0	0	0.0439876	0.150319	-0.153665	0.00776488	-0.464548	0.998112	0.493008	0.599104	0	0	0.20483	-0.0098557	0.426728	0.307823	1.5708	0	0
170.11	2.00972	1.47098	0.906471	-0.368216	-0.497797	0.879178	0.47495	0.0911996	-0.14367	0.675187	-0.182451	0	0	-0.126324	-0.294475	-0.315033	0.764481	-0.526512	0	0	0.0524329	0.149897	-0.156114	0.0115695	-0.466775	0.99787	0.50213	0.602708	0	0	0.200893	-0.0139052	0.436457	0.30736	1.5708	0	0
170.12	1.98427	1.46666	0.924137	-0.377001	-0.49211	0.879785	0.462523	0.0951948	-0.154173	0.665179	-0.180789	0	0	-0.0824585	-0.305162	-0.282926	0.840377	-0.531516	0	0	0.059611	0.149923	-0.159235	0.0144352	-0.470246	0.989386	0.514903	0.609732	0	0	0.197355	-0.0185242	0.444235	0.308219	1.5708	0	0
170.13	1.96127	1.46274	0.938756	-0.385583	-0.486362	0.880357	0.45014	0.100339	-0.161955	0.655567	-0.178688	0	0	-0.039017	-0.315347	-0.254633	0.913335	-0.544793	0	0	0.0653694	0.149752	-0.158817	0.00305716	-0.465696	0.916162	0.524469	0.68063	0	0	0.196368	-0.0228898	0.457423	0.307625	1.5708	0	0
170.14	2.18738	1.45653	0.683331	-0.397012	-0.479779	0.87951	0.41384	0.134081	-0.167882	0.6455	-0.171382	0	0	-0.0532803	-0.52326	-0.615134	1.06636	-0.698132	0	0	0.0560654	0.179762	-0.139219	0.00223355	-0.513797	0.945588	0.596109	0.627519	0	0	0.189099	-0.0209364	0.464405	0.318409	1.5708	0	0
170.15	2.21492	1.45657	0.645229	-0.405605	-0.473879	0.880735	0.390888	0.142781	-0.17115	0.631081	-0.169843	0	0	-0.0218139	-0.540242	-0.59246	1.12156	-0.698132	0	0	0.0537156	0.181664	-0.139988	0.00508651	-0.517851	0.927086	0.611608	0.63313	0	0	0.188063	-0.025913	0.46733	0.318847	1.5708	0	0
170.16	2.28088	1.45922	0.569342	-0.41452	-0.468207	0.882567	0.359545	0.150827	-0.176457	0.612068	-0.169779	0	0	0.00172281	-0.554264	-0.571524	1.16799	-0.698132	0	0	0.0459353	0.184048	-0.141139	0.00727596	-0.521354	0.903412	0.626188	0.645841	0	0	0.18802	-0.0302718	0.467795	0.318019	1.5708	0	0
170.17	2.26047	1.46224	0.570879	-0.421635	-0.461569	0.883555	0.342869	0.158665	-0.159328	0.602326	-0.167928	0	0	0.032574	-0.558937	-0.550986	1.21164	-0.698132	0	0	0.0431378	0.179191	-0.133076	0.00962276	-0.519639	0.87362	0.63673	0.665877	0	0	0.189221	-0.0376615	0.468912	0.3183	1.5708	0	0
170.18	2.26957	1.46678	0.544791	-0.429273	-0.455172	0.884938	0.31921	0.164929	-0.146813	0.587713	-0.165818	0	0	0.058172	-0.561008	-0.529327	1.24853	-0.667265	0	0	0.0375335	0.174734	-0.12637	0.00799337	-0.515525	0.829962	0.645422	0.705386	0	0	0.190472	-0.0437711	0.467034	0.317827	1.5708	0	0
170.19	2.29325	1.47242	0.505982	-0.437002	-0.44883	0.88647	0.29218	0.169329	-0.137183	0.570202	-0.165363	0	0	0.0827569	-0.560498	-0.505202	1.28045	-0.62719	0	0	0.030682	0.169397	-0.12124	0.00509625	-0.509164	0.781336	0.65262	0.754338	0	0	0.19215	-0.0503363	0.465308	0.316576	1.5708	0	0
170.2	2.31749	1.47863	0.466649	-0.444611	-0.442492	0.887958	0.265532	0.171912	-0.129339	0.55351	-0.165847	0	0	0.107184	-0.558349	-0.482716	1.30746	-0.5929	0	0	0.0240031	0.162964	-0.116133	0.00246603	-0.502605	0.734679	0.660347	0.80289	0	0	0.194429	-0.0575202	0.466125	0.314058	1.5708	0	0
170.21	2.36776	1.48523	0.401916	-0.452582	-0.436322	0.889656	0.235581	0.173175	-0.125313	0.53487	-0.167733	0	0	0.12789	-0.555433	-0.463649	1.32753	-0.565808	0	0	0.0164383	0.157118	-0.112027	0.000261172	-0.498033	0.693663	0.669864	0.844776	0	0	0.197334	-0.0630799	0.463202	0.307489	1.5708	0	0
170.22	2.47638	1.49162	0.281214	-0.462218	-0.430496	0.892042	0.195239	0.171916	-0.13386	0.505884	-0.17963	0	0	0.139146	-0.552045	-0.451767	1.33739	-0.536647	0	0	0.00682617	0.153375	-0.104019	-0.0363449	-0.463236	0.515899	0.670599	1.05142	0	0	0.203116	-0.0617873	0.45996	0.292209	1.5708	0	0
170.23	2.64883	1.49584	0.0954037	-0.47396	-0.425112	0.894728	0.147028	0.167386	-0.156891	0.474056	-0.18751	0	0	0.136664	-0.551092	-0.45725	1.33849	-0.516567	0	0	0.000689025	0.154173	-0.110777	-0.0146494	-0.498975	0.611709	0.696692	0.928017	0	0	0.196709	-0.0604903	0.438439	0.281499	1.5708	0	0
170.24	2.67255	1.50401	0.0598997	-0.477158	-0.418397	0.895261	0.135174	0.168675	-0.135778	0.470849	-0.186234	0	0	0.179505	-0.539086	-0.415807	1.35523	-0.488088	0	0	-0.0118203	0.138493	-0.0992459	-0.039651	-0.451381	0.440413	0.69782	1.11731	0	0	0.21215	-0.0756731	0.463368	0.277726	1.5708	0	0
170.25	2.70378	1.50995	0.0140567	-0.483623	-0.412316	0.895993	0.116396	0.166102	-0.128816	0.462039	-0.185911	0	0	0.207319	-0.53057	-0.399297	1.36183	-0.462445	0	0	-0.0157562	0.12997	-0.100488	-0.0262134	-0.460638	0.466024	0.715049	1.07555	0	0	0.168155	-0.192903	0.703147	0.396357	1.5708	0	0
170.26	2.74425	1.51576	-0.0413516	-0.490785	-0.406343	0.896966	0.0953774	0.161979	-0.124661	0.450072	-0.187694	0	0	0.23055	-0.521676	-0.390578	1.36184	-0.437313	0	0	-0.0185874	0.121922	-0.0941885	-0.0334107	-0.451825	0.416594	0.72919	1.11577	0	0	0.223965	-0.0858061	0.464711	0.251095	1.5708	0	0
170.27	2.8783	1.52155	-0.189988	-0.497891	-0.400331	0.898036	0.0691005	0.156765	-0.121488	0.436043	-0.190219	0	0	0.246965	-0.512541	-0.388178	1.35768	-0.410867	0	0	-0.0271669	0.112934	-0.0867235	-0.0486409	-0.42785	0.320901	0.742838	1.21878	0	0	0.232055	-0.0887992	0.463921	0.244722	1.5708	0	0
170.28	2.87384	1.5259	-0.202249	-0.505394	-0.394519	0.89894	0.0500822	0.153499	-0.113629	0.420177	-0.194029	0	0	0.268779	-0.505556	-0.394086	1.35054	-0.387662	0	0	-0.0285852	0.108254	-0.0956516	-0.0347866	-0.424161	0.316615	0.749471	1.23677	0	0	0.254336	-0.105764	0.672554	0.197103	1.5708	0	0
170.29	-3.04503	1.52672	-0.583116	-0.512186	-0.38826	0.899972	0.0136171	0.147429	-0.110643	0.403985	-0.194138	0	0	0.270379	-0.504024	-0.429487	1.34763	-0.363051	0	0	-0.0437909	0.0986933	-0.0774726	-0.0444495	-0.429205	0.301015	0.776237	1.21382	0	0	0.234331	-0.0985292	0.423723	0.236084	1.5708	0	0
